<?xml version="1.0" encoding="UTF-8"?>
<svg version="1.1" viewBox="0 0 1800 1200" width="1280" height="1280" xmlns="http://www.w3.org/2000/svg">
<path transform="translate(932,157)" d="m0 0 16 1 16 3 22 8 33 16 17 9 20 9 21 7 25 5 42 6 17 3 19 5 15 6 13 8 10 9 8 8 10 14 9 15 8 16 12 23 8 15 11 16 18 20 32 30 19 19 12 17 8 16 3 9 2 10 1 16-2 23-9 52-2 17v25l3 24 8 46 2 26-2 19-5 17-9 16-10 13-12 13-10 10-8 7-15 14-10 9-7 8-11 14-8 13-10 18-15 30-10 17-8 11-9 11-10 9-13 8-8 4-21 7-26 5-49 7-25 6-25 10-26 13-19 10-21 9-20 6h-44l-20-6-19-8-20-10-19-10-22-10-18-6-24-5-43-6-22-4-21-6-16-8-12-9-9-8-11-14-10-16-15-29-13-25-9-14-10-13-7-7-5-6-8-7-7-7-8-7-17-16-12-13-11-15-8-16-4-13-1-8v-29l3-22 7-39 2-17v-25l-4-29-7-41-1-11v-28l3-15 6-14 12-18 12-13 21-21 8-7 15-14 10-10 13-17 12-21 14-27 11-21 12-18 10-11 5-5 12-9 16-8 19-6 26-5 44-6 20-4 18-6 21-9 16-8 23-12 18-8 21-7z" fill="#462828"/>
<path transform="translate(987,443)" d="m0 0h1l1 127 3 9 3 3h6l5-4 4-8 1-3v-30l3-16 5-12 6-9 7-7 10-5 3-1h18l10 4 7 6 7 14 2 11 14-3 5-1 1-5 5-10 9-10 10-5 4-1h16l10 4 5 4 4 7 1 4v13l-3 6-3 2-7-1-3-2 1-6 1-10-3-6-4-2h-8l-6 4-5 8-4 16-1 12v12l2 13 5 10 6 5 7 2h11l10-3 8-6 6-8 1-4v-23l3-16 5-12 6-10 10-9 11-4h15l11 4 5 5 4 6 2 9v8l-2 9-6 9-7 7-14 7-12 3h-7l4 16 4 6 5 4 7 2h11l12-4 8-6 3-4 2-10 4-6 2-1 13-38 5-23 1-5 19-4h4l14 54 4 22 1 11 12-9h9l-2 4-7 8-10 9-6 4-5 7-10 6-10 3h-15l-10-4-8-7-4-7v-3h-2l-2 4-9 8-16 8-5 1h-15l-11-4-8-6-6-8-4-7-7 9-9 8-14 7-4 1h-15l-12-4-8-6-6-7-5-10-3-11v-28l1-5-14 4-1 23-4 18-6 12-5 6-9 6-7 2h-14l-12-4-9-7-7-9-7 12-7 6-6 2h-11l-8-4-6-8-2-6-4 5-6 7-9 5-3 1h-14l-12-5-7-6-5-7-4 5-6 8-6 4-4 1h-12l-8-4-7-8-3-7-1-5-1-59-3-8-3-3-3-1h-8l-5 3h-2l-2 4-4 9-1 4-1 74h-23l-1-10-4 5-8 5-3 1h-12l-7-4-5-6-4-8-7 10-9 6-6 2h-13l-11-4-10-9-7-14-3-13v-21l3-16 5-13 7-11 9-8 10-4h15l8 4 4 4 1-7h23l1 84 3 8 3 2 8-1 6-9 3-10 1-74h23l1 13 6-8 10-6 13-1 9 2 6 4 7 8 3 8 1 6v57l3 9 3 2h6l5-4 4-8 1-5-1-7v-17l3-17 4-12 7-11 9-9 8-4 3-1h15l10 5 3 4 1-50z" fill="#FEFEEE"/>
<path transform="translate(592,433)" d="m0 0h24l15 3 12 5 11 8 6 5 8 11 6 12 4 13 2 11 1 20-2 22-5 20-7 17-8 11-7 7-9 4h-11l-12-4-11-7-1 8h-25v-141l4-2 14-2h7l1 128 8 4h12l7-4 6-8 5-11 4-16 2-17v-27l-2-18-4-15-5-10-9-10-10-5-15-3h-13l-16 4-11 6-8 8-6 12-2 9v11l3 10 4 6 4 4h-8l-11-4-5-4-4-8-1-4v-13l4-12 6-9 5-6 13-9 16-7z" fill="#FEFEEE"/>
<path transform="translate(930,239)" d="m0 0 4 2 7 7 9 14 5 12 2 8v20l-4 13-6 12-8 10-7 8-4-2-10-11-8-13-4-11-2-10v-14l4-15 8-15 11-13z" fill="#FEFEEE"/>
<path transform="translate(1e3 311)" d="m0 0h12l1 1v15l-3 14-5 12-7 11-9 9-9 6-13 5-16 3h-14v-14l3-16 5-12 7-11 8-8 11-7 13-5z" fill="#FEFEEE"/>
<path transform="translate(847,311)" d="m0 0h13l15 3 13 5 11 7 9 9 7 11 5 14 2 12v15h-13l-16-3-13-5-9-6-10-9-8-13-5-15-1-5z" fill="#FEFEEE"/>
<path transform="translate(945,859)" d="m0 0h20l17 5 11 6 10 9 9 14 5 14 2 13v12h-18l-16-4-12-6-10-8-8-10-6-13-3-11-1-7z" fill="#FEFEEE"/>
<path transform="translate(906,859)" d="m0 0h21l-1 18-4 15-7 14-11 12-13 8-15 5-6 1h-17v-18l4-15 7-14 9-10 9-7 10-5z" fill="#FEFEEE"/>
<path transform="translate(936,899)" d="m0 0 7 6 8 10 6 10 4 11 2 13-1 13-4 13-6 11-7 9-5 6-4 2-10-10-9-14-5-14-1-5v-18l4-14 6-11 8-10z" fill="#FEFEEE"/>
<path transform="translate(1056,499)" d="m0 0h7l6 3 5 6 1 5-5 2-2 2v10l5 5 6 2v14l-2 14-4 11-7 8-6 2h-8l-8-4-5-7-3-9-1-6v-19l3-17 4-10 9-10z" fill="#462828"/>
<path transform="translate(949,499)" d="m0 0h7l5 3 5 6v54l-3 9-4 6-5 4-4 2h-8l-6-3-5-6-3-8-1-5v-25l3-14 5-12 7-8z" fill="#462828"/>
<path transform="translate(739,499)" d="m0 0 9 1 6 5 1 2v59l-5 10-8 6-2 1h-8l-6-3-6-7-3-10-1-18 2-17 5-15 6-8 5-4z" fill="#462828"/>
<path transform="translate(766,645)" d="m0 0h25l8 4 4 5 3 8v8l-4 10-8 6-3 1h-25v-4h4v-34h-4z" fill="#FEFEEE"/>
<path transform="translate(1294,507)" d="m0 0h1l11 48v19l-3 5-4 3-3 1h-10l-6-3-4-5-2-4 1-3 1 1h6l3-3v-10l-3-4 1-7 8-25z" fill="#462828"/>
<path transform="translate(1227,498)" d="m0 0h7l6 5 1 3v14l-4 10-8 8-10 5-6 2h-5v-12l3-14 5-12 5-6z" fill="#462828"/>
<path transform="translate(1159,645)" d="m0 0h10l6 9 10 19 13-23 3-5h10v4h-4v34h4v4h-14v-4l4-1v-25l-13 23-5 1-13-23-1 25h4v4h-14l1-4h3v-34l-4-1z" fill="#FEFEEF"/>
<path transform="translate(1111,645)" d="m0 0h22l6 3 3 4v9l-5 6-3 2 9 13 4 1v4h-8l-11-15v-2h-6v12l4 2v3h-15l1-4h3v-34l-4-1z" fill="#FEFEEF"/>
<path transform="translate(1120,719)" d="m0 0h9l6 4 1 2v8l-4 4 5 4 1 8-3 6-5 3h-10l-6-3-3-6 1-7 5-5-4-5v-7l5-5z" fill="#FEFEEF"/>
<path transform="translate(943,719)" d="m0 0h9l6 4 1 2v7l-4 5 5 5 1 5-2 6-4 4-3 1h-10l-6-4-2-4v-7l4-5 2-1-4-4-1-5 2-5z" fill="#FEFEEF"/>
<path transform="translate(906,719)" d="m0 0h9l6 5 1 2v6l-4 5 5 5v9l-5 6-3 1h-10l-6-4-2-3v-8l5-7-4-5 1-7 4-4z" fill="#FEFEEF"/>
<path transform="translate(756,719)" d="m0 0h9l6 5 1 2v6l-4 5 5 5v9l-5 6-3 1h-10l-6-4-2-3v-8l5-7-4-5 1-7 4-4z" fill="#FEFEEF"/>
<path transform="translate(1023,650)" d="m0 0h7l6 3 3 3 2 6v9l-4 8-5 3h-11l-6-4-3-6v-12l4-6 4-3z" fill="#462828"/>
<path transform="translate(844,645)" d="m0 0h9l12 15 11 15 1-26-5-1v-3h15l-1 4-3 1-1 37-5-1-12-15-10-13-1 25h4v4h-14l1-4h3v-34l-4-1z" fill="#FEFEEF"/>
<path transform="translate(712,645)" d="m0 0h9l15 20 8 10v-25l-4-1v-4h14v4h-4v38h-5l-14-18-9-12-1 26 5 1v3h-14v-4h4v-34h-4z" fill="#FEFEEE"/>
<path transform="translate(643,650)" d="m0 0h15l6 4 3 7v10l-4 8-5 3h-15z" fill="#462828"/>
<path transform="translate(633,645)" d="m0 0h25l8 4 5 6 2 5v12l-4 8-6 5-5 2h-25l1-4h3v-34l-4-1zm10 5v32h15l6-4 3-7v-10l-4-8-5-3z" fill="#FEFEEE"/>
<path transform="translate(776,650)" d="m0 0h14l5 3 4 6 1 8-2 8-5 6-3 1h-14z" fill="#462828"/>
<path transform="translate(1021,645)" d="m0 0h11l8 4 5 6 2 5v12l-5 10-8 5-10 1-9-3-5-4-4-8v-13l4-8 6-5zm2 5-6 3-4 5-1 2v12l3 6 6 4h11l5-3 4-8v-9l-3-7-5-4-3-1z" fill="#FEFEEF"/>
<path transform="translate(1223,645)" d="m0 0h31v10h-5v-5h-15v13h15v5h-15v14h15l1-5 4 1v9h-31l1-4h3v-34l-4-1z" fill="#FEFEF0"/>
<path transform="translate(1058,645)" d="m0 0h15l-1 4h-4l1 25 2 5 3 2h9l5-5 1-3 1-24-5-1v-3h15l-1 4h-3v24l-3 8-7 6-10 1-7-3-5-5-2-5v-26h-4z" fill="#FEFEEF"/>
<path transform="translate(972,645)" d="m0 0h13l8 3v10h-4l-1-6-4-1h-9l-7 3-3 4-1 4v9l4 8 7 3h7l6-1v-9h-6l-1-5h13v16l-7 4-12 1-9-3-5-5-4-8v-12l4-8 6-5z" fill="#FEFEEF"/>
<path transform="translate(869,719)" d="m0 0h9l6 4 2 4v9l-7 12-8 10h-6l6-9 5-7h-8l-6-4-1-2v-10l4-5z" fill="#FEFEEF"/>
<path transform="translate(907,645)" d="m0 0h11l6 2v10l-5-1v-5h-11l-2 2v6l16 8 3 7-2 8-6 5-10 1-9-3v-10l5 1 1 5 8 1 5-2 1-7-6-4-10-4-3-5v-7l4-6z" fill="#FEFEEF"/>
<path transform="translate(1090,719)" d="m0 0h5v25h6v4h-6v10h-5v-10h-18l-1-4 16-21z" fill="#FEFEEF"/>
<path transform="translate(1266,645)" d="m0 0h34v9h-4v-4h-10v33h4v4h-14v-4h4v-33h-10v4h-4z" fill="#FEFEEE"/>
<path transform="translate(980,719)" d="m0 0h9l6 4 2 8-3 7-9 10-4 4 12 1 1-4h3v9h-26l1-4 15-15 3-5v-7l-1-2-6-1-4 2-3 5-4-1 1-5 5-5z" fill="#FEFEEF"/>
<path transform="translate(1017,719)" d="m0 0h9l5 3 2 3v9l-4 6-9 9-2 3 12 1 1-4h3v9h-26l1-4 13-13 5-8v-8l-7-1-5 3-1 3-3 1-2-1 1-5 5-5z" fill="#FEFEEE"/>
<path transform="translate(789,719)" d="m0 0h19l-2 5h-14l-1 9h10l6 4 2 5v6l-4 7-6 3h-9l-6-3 2-4 7 2 7-1 3-7-1-6-10-1h-5l-1-5 2-12z" fill="#FEFEEF"/>
<path transform="translate(1153,719)" d="m0 0h19v4l-2 1h-13l-1 8 12 2 5 6v9l-4 6-5 3h-10l-5-3 1-4 7 2 7-1 3-4v-6l-4-4h-12l-1-3z" fill="#FEFEEF"/>
<path transform="translate(758,784)" d="m0 0h10l6 4 2 3v9l-4 5h-6-3-5l-3-4 2-7 4-3h8l-1 11 4-1 1-6-2-5-5-3h-6l-6 4-2 4 1 9 5 5 7 1 8-2 1 3-5 2h-10l-7-4-3-5-1-7 3-8 5-4z" fill="#FEFEF0"/>
<path transform="translate(794,782)" d="m0 0h7l1 24 1 3h-5l-2-1-2 1h-6l-4-4v-10l5-5h6l2 1v-6l-3-1z" fill="#FEFEF1"/>
<path transform="translate(874,782)" d="m0 0h7v24l3 1v2h-6v-2l-4 2h-6l-4-5v-8l3-5 2-1h6l2 1v-6l-3-1z" fill="#FEFEEF"/>
<path transform="translate(818,645)" d="m0 0h14l-1 4h-3v34l4 1v3h-14v-4h4v-34h-4z" fill="#FEFEEE"/>
<path transform="translate(685,645)" d="m0 0h14v4h-4v34h4v4h-14l1-4h3v-34l-4-1z" fill="#FEFEEE"/>
<path transform="translate(1195,719)" d="m0 0h4v35l8 1v3h-21l1-4h7l-1-27-6 5-3-2 2-4z" fill="#FEFEEE"/>
<path transform="translate(896,790)" d="m0 0h8l4 4 1 2v7l-2 4-3 2h-8l-5-5v-9z" fill="#FEFEEF"/>
<path transform="translate(1034,790)" d="m0 0h7l5 5 1 6-3 6-3 2h-7l-5-4-1-2v-7l4-5z" fill="#FEFEEF"/>
<path transform="translate(733,716)" d="m0 0 4 2-5 14v18l4 11 1 3-4 2-5-10-2-8v-14l4-13z" fill="#FEFEEF"/>
<path transform="translate(821,716)" d="m0 0h2l5 10 2 10v10l-3 12-4 8-4-2 5-15v-16l-5-15z" fill="#FEFEEF"/>
<path transform="translate(1121,650)" d="m0 0h11l4 3v8l-3 3-3 1h-9z" fill="#462828"/>
<path transform="translate(815,790)" d="m0 0h7l3 3v13l3 1v2h-5l-2-1-2 1h-6l-3-3 1-5 5-3h6l-1-5-10 1z" fill="#FEFEEF"/>
<path transform="translate(835,790)" d="m0 0h6v2l4-2h6l3 4v12l3 1v2h-7l-1-15h-7l1 12 1 3h-9l1-3h2v-13l-3-1z" fill="#FEFEF0"/>
<path transform="translate(1152,790)" d="m0 0h7l4 4v5h-13l3 6h6l3-1v4l-2 1h-8l-5-5-1-7 3-5z" fill="#FEFEF0"/>
<path transform="translate(989,790)" d="m0 0h7l4 4v5h-13l3 6h6l3-1v4l-2 1h-8l-5-5-1-7 3-5z" fill="#FEFEF0"/>
<path transform="translate(944,790)" d="m0 0h7l4 4v5h-13l3 6h6l3-1v4l-2 1h-8l-5-5-1-7 3-5z" fill="#FEFEF0"/>
<path transform="translate(907,739)" d="m0 0h6l5 5-1 7-4 3h-6l-5-5 1-7z" fill="#462828"/>
<path transform="translate(757,739)" d="m0 0h6l5 5-1 7-4 3h-6l-5-5 1-7z" fill="#462828"/>
<path transform="translate(945,739)" d="m0 0 7 1 3 3v7l-5 4h-6l-4-3-1-6 3-5z" fill="#462828"/>
<path transform="translate(1122,739)" d="m0 0 7 1 3 3v7l-4 4h-7l-4-4v-7l3-3z" fill="#462828"/>
<path transform="translate(1109,790)" d="m0 0h7l4 5v4h-13l1 6h11l1 2-4 2h-7l-5-4-1-9 4-5z" fill="#FEFEEF"/>
<path transform="translate(872,723)" d="m0 0 6 1 3 4v6l-4 4h-7l-4-4v-7l3-3z" fill="#462828"/>
<path transform="translate(1075,790)" d="m0 0h9l-1 6 2 7h2l2-10-1-3h9l-1 3-2 1-6 15h-4l-6-14v-2l-3-1z" fill="#FEFEEF"/>
<path transform="translate(1174,790)" d="m0 0h8l1 1v5h-2v-3h-6v3l8 4 1 1v5l-3 3h-9l-1-1v-5h2v3l7-1-1-3-7-3-1-1v-5z" fill="#FEFEEF"/>
<path transform="translate(1012,790)" d="m0 0h7l1 1v5h-2v-3h-6v4l7 2 2 1v6l-3 3h-8l-2-1v-5h2l1 2h6l1-3-9-3-1-5z" fill="#FEFEF0"/>
<path transform="translate(967,790)" d="m0 0h7l1 1v5h-2v-3h-6v4l7 2 2 1v6l-3 3h-8l-2-1v-5h2l1 2h6l1-3-9-3-1-5z" fill="#FEFEF0"/>
<path transform="translate(944,723)" d="m0 0h6l4 4-1 6-3 2h-6l-3-2-1-6z" fill="#462828"/>
<path transform="translate(907,723)" d="m0 0h6l3 2 1 5-2 4-2 1h-6l-4-4 1-6z" fill="#462828"/>
<path transform="translate(757,723)" d="m0 0h6l3 2 1 5-2 4-2 1h-6l-4-4 1-6z" fill="#462828"/>
<path transform="translate(1122,723)" d="m0 0 7 1 2 2v6l-4 3-7-1-2-2v-6z" fill="#462828"/>
<path transform="translate(921,790)" d="m0 0h8l2 1v5h-3v-3l-7 2v9l1 1h9l-1 3-2 1h-7l-4-4-1-2v-7l3-5z" fill="#FEFEEF"/>
<path transform="translate(1034,793)" d="m0 0h6l3 4-1 7-2 2h-6l-2-3v-7z" fill="#462828"/>
<path transform="translate(756,785)" d="m0 0m-2 1 2 1-4 8 1 9 5 5 7 1 8-2 1 3-5 2h-10l-7-4-3-5-1-7 3-8z" fill="#FEFEF1"/>
<path transform="translate(1089,727)" d="m0 0h1v17h-13l6-9z" fill="#462828"/>
<path transform="translate(897,793)" d="m0 0h6l2 3v7l-2 3h-6l-2-2-1-5 2-5z" fill="#462828"/>
<path transform="translate(1131,784)" d="m0 0h2v6h6l-1 3h-5l1 13 4-1v4h-6l-2-2v-14l-3-1v-2h3z" fill="#FEFEEF"/>
<path transform="translate(790,793)" d="m0 0h6l1 1v10l-2 2h-6l-2-7 2-5z" fill="#462828"/>
<path transform="translate(1054,790)" d="m0 0h6l1 2 2-2h5v4l-6 1-1 2-1 9 3 1v2h-9l1-3h2v-13l-3-1z" fill="#FEFEEF"/>
<path transform="translate(870,793)" d="m0 0h6l1 1v11l-2 1h-6l-1-2v-9z" fill="#462828"/>
<path transform="translate(1046,740)" d="m0 0h14v4h-14z" fill="#ffe"/>
<path transform="translate(764,793)" d="m0 0h2l-2 9-4 1-1-1v-6z" fill="#462828"/>
<path transform="translate(819,800)" d="m0 0h3l-1 5-1 1h-6l1-5z" fill="#462828"/>
<path transform="translate(1109,793)" d="m0 0h6l2 4h-10z" fill="#462828"/>
<path transform="translate(1152,793)" d="m0 0h6l2 4h-10z" fill="#462828"/>
<path transform="translate(989,793)" d="m0 0h6l2 4h-10z" fill="#462828"/>
<path transform="translate(944,793)" d="m0 0h6l2 4h-10z" fill="#462828"/>
</svg>
